C:\Users\nbianco\repos\ankle-perturb-sim\results\experiments\subject18\walk2\expdata\ground_reaction_unfiltered.mot
version=1
nRows=27
nColumns=19
inDegrees=no
endheader
time	ground_force_r_vx	ground_force_r_vy	ground_force_r_vz	ground_force_r_px	ground_force_r_py	ground_force_r_pz	ground_force_l_vx	ground_force_l_vy	ground_force_l_vz	ground_force_l_px	ground_force_l_py	ground_force_l_pz	ground_torque_r_x	ground_torque_r_y	ground_torque_r_z	ground_torque_l_x	ground_torque_l_y	ground_torque_l_z
0.033333	0.000000	0.000000	-0.000000	-0.000000	-0.000000	0.000000	-37.638308	531.640059	33.720052	0.796453	0.000000	-0.562621	0.000000	0.000000	0.000000	0.000000	2.499050	0.000000
0.034375	0.000000	-0.000000	0.000000	-0.000000	-0.000000	0.000000	-37.419465	531.007328	33.919702	0.795909	0.000000	-0.562217	0.000000	0.000000	0.000000	0.000000	2.226030	0.000000
0.035417	0.000000	-0.000000	0.000000	-0.000000	-0.000000	0.000000	-37.202454	530.382698	34.115626	0.795375	0.000000	-0.561821	0.000000	0.000000	0.000000	0.000000	1.952935	0.000000
0.036458	-0.000000	-0.000000	0.000000	-0.000000	-0.000000	0.000000	-36.983045	529.759602	34.303683	0.794851	0.000000	-0.561440	0.000000	0.000000	0.000000	0.000000	1.681282	0.000000
0.037500	-0.000000	-0.000000	0.000000	-0.000000	-0.000000	0.000000	-36.756915	529.130760	34.480126	0.794334	0.000000	-0.561080	0.000000	0.000000	0.000000	0.000000	1.412569	0.000000
0.038542	-0.000000	-0.000000	0.000000	-0.000000	-0.000000	0.000000	-36.520005	528.488823	34.641757	0.793825	0.000000	-0.560746	0.000000	0.000000	0.000000	0.000000	1.148249	0.000000
0.039583	-0.000000	-0.000000	0.000000	-0.000000	-0.000000	0.000000	-36.268810	527.826921	34.786022	0.793319	0.000000	-0.560443	0.000000	0.000000	0.000000	0.000000	0.889719	0.000000
0.040625	-0.000000	-0.000000	0.000000	-0.000000	-0.000000	0.000000	-36.000593	527.139102	34.911060	0.792815	0.000000	-0.560173	0.000000	0.000000	0.000000	0.000000	0.638300	0.000000
0.041667	-0.000000	-0.000000	0.000000	-0.000000	-0.000000	0.000000	-35.713511	526.420627	35.015694	0.792310	0.000000	-0.559938	0.000000	0.000000	0.000000	0.000000	0.395221	0.000000
0.042708	-0.000000	-0.000000	0.000000	-0.000000	-0.000000	0.000000	-35.406652	525.668139	35.099378	0.791799	0.000000	-0.559736	0.000000	0.000000	0.000000	0.000000	0.161606	0.000000
0.043750	-0.000000	-0.000000	0.000000	0.000000	-0.000000	0.000000	-35.080006	524.879706	35.162116	0.791280	0.000000	-0.559568	0.000000	0.000000	0.000000	0.000000	-0.061539	-0.000000
0.044792	-0.000000	0.000000	-0.000000	0.000000	0.000000	-0.000000	-34.734378	524.054760	35.204346	0.790751	0.000000	-0.559432	0.000000	0.000000	0.000000	0.000000	-0.273333	-0.000000
0.045833	-0.000000	0.000000	-0.000000	0.000000	0.000000	-0.000000	-34.371253	523.193958	35.226823	0.790208	0.000000	-0.559324	0.000000	0.000000	0.000000	0.000000	-0.473032	-0.000000
0.046875	0.000000	0.000000	-0.000000	0.000000	0.000000	-0.000000	-33.992641	522.298997	35.230502	0.789649	0.000000	-0.559242	0.000000	0.000000	0.000000	0.000000	-0.660031	-0.000000
0.047917	0.000000	0.000000	-0.000000	0.000000	0.000000	-0.000000	-33.600921	521.372391	35.216424	0.789072	0.000000	-0.559183	0.000000	0.000000	0.000000	0.000000	-0.833872	-0.000000
0.048958	0.000000	0.000000	-0.000000	0.000000	0.000000	-0.000000	-33.198676	520.417254	35.185633	0.788476	0.000000	-0.559144	0.000000	0.000000	0.000000	0.000000	-0.994241	-0.000000
0.050000	0.000000	0.000000	-0.000000	0.000000	0.000000	-0.000000	-32.788557	519.437089	35.139096	0.787859	0.000000	-0.559120	0.000000	0.000000	0.000000	0.000000	-1.140967	-0.000000
0.051042	0.000000	0.000000	-0.000000	0.000000	0.000000	-0.000000	-32.373160	518.435606	35.077665	0.787220	0.000000	-0.559109	0.000000	0.000000	0.000000	0.000000	-1.274023	-0.000000
0.052083	0.000000	0.000000	-0.000000	0.000000	0.000000	-0.000000	-31.954931	517.416567	35.002046	0.786558	0.000000	-0.559109	0.000000	0.000000	0.000000	0.000000	-1.393518	-0.000000
0.053125	0.000000	0.000000	-0.000000	0.000000	0.000000	-0.000000	-31.536095	516.383673	34.912797	0.785874	0.000000	-0.559116	0.000000	0.000000	0.000000	0.000000	-1.499688	-0.000000
0.054167	0.000000	0.000000	-0.000000	0.000000	0.000000	-0.000000	-31.118607	515.340479	34.810343	0.785167	0.000000	-0.559129	0.000000	0.000000	0.000000	0.000000	-1.592895	-0.000000
0.055208	0.000000	0.000000	0.000000	-0.000000	-0.000000	0.000000	-30.704131	514.290343	34.694998	0.784437	0.000000	-0.559146	0.000000	0.000000	0.000000	0.000000	-1.673609	-0.000000
0.056250	0.000000	-0.000000	0.000000	-0.000000	-0.000000	0.000000	-30.294021	513.236403	34.567000	0.783685	0.000000	-0.559165	0.000000	0.000000	0.000000	0.000000	-1.742403	-0.000000
0.057292	-0.000000	-0.000000	0.000000	-0.000000	-0.000000	0.000000	-29.889334	512.181569	34.426553	0.782910	0.000000	-0.559185	0.000000	0.000000	0.000000	0.000000	-1.799936	-0.000000
0.058333	-0.000000	-0.000000	0.000000	-0.000000	-0.000000	0.000000	-29.490831	511.128534	34.273859	0.782115	0.000000	-0.559205	0.000000	0.000000	0.000000	0.000000	-1.846944	-0.000000
0.059375	-0.000000	-0.000000	0.000000	-0.000000	-0.000000	0.000000	-29.099003	510.079792	34.109161	0.781299	0.000000	-0.559223	0.000000	0.000000	0.000000	0.000000	-1.884227	-0.000000
0.060417	-0.000000	-0.000000	0.000000	-0.000000	-0.000000	0.000000	-28.714090	509.037656	33.932772	0.780464	0.000000	-0.559240	0.000000	0.000000	0.000000	0.000000	-1.912633	-0.000000
